<svg xmlns="http://www.w3.org/2000/svg" enable-background="new 0 0 32 32" viewBox="0 0 32 32" id="menu">
  <path d="M2 8.46436h28c.82813 0 1.5-.67139 1.5-1.5s-.67188-1.5-1.5-1.5H2c-.82861 0-1.5.67139-1.5 1.5S1.17139 8.46436 2 8.46436zM30 14.5H2c-.82861 0-1.5.67139-1.5 1.5s.67139 1.5 1.5 1.5h28c.82813 0 1.5-.67139 1.5-1.5S30.82813 14.5 30 14.5zM30 23.53564H2c-.82861 0-1.5.67139-1.5 1.5s.67139 1.5 1.5 1.5h28c.82813 0 1.5-.67139 1.5-1.5S30.82813 23.53564 30 23.53564z" fill="#ffffff" class="color000000 svgShape"></path>
</svg>
